<svg width="87" height="100" viewBox="0 0 87 100" fill="none" xmlns="http://www.w3.org/2000/svg">
<g filter="url(#filter0_d_4305_193)">
<path d="M75.1738 75.0183V14.0919C75.1738 10.1751 71.9816 7 68.0438 7L34.1476 7C30.2098 7 27.0175 10.1751 27.0175 14.0919L27.0175 75.0183C27.0175 78.9351 30.2098 82.1102 34.1476 82.1102H68.0438C71.9816 82.1102 75.1738 78.9351 75.1738 75.0183Z" fill="url(#paint0_radial_4305_193)"/>
</g>
<path d="M66.1553 92.0306V23.4858C66.1553 19.0845 62.5681 15.5165 58.1431 15.5165L20.0124 15.5165C15.5874 15.5165 12.0002 19.0845 12.0002 23.4858L12.0002 92.0306C12.0002 96.432 15.5874 100 20.0124 100H58.1431C62.5681 100 66.1553 96.432 66.1553 92.0306Z" fill="url(#paint1_radial_4305_193)"/>
<path opacity="0.35" d="M66.1553 92.0306V23.4858C66.1553 19.0845 62.5681 15.5165 58.1431 15.5165L20.0124 15.5165C15.5874 15.5165 12.0002 19.0845 12.0002 23.4858L12.0002 92.0306C12.0002 96.432 15.5874 100 20.0124 100H58.1431C62.5681 100 66.1553 96.432 66.1553 92.0306Z" fill="url(#paint2_radial_4305_193)"/>
<mask id="mask0_4305_193" style="mask-type:luminance" maskUnits="userSpaceOnUse" x="12" y="15" width="55" height="85">
<path d="M66.1553 92.0306V23.4858C66.1553 19.0845 62.5681 15.5165 58.1431 15.5165L20.0124 15.5165C15.5874 15.5165 12.0002 19.0845 12.0002 23.4858L12.0002 92.0306C12.0002 96.432 15.5874 100 20.0124 100H58.1431C62.5681 100 66.1553 96.432 66.1553 92.0306Z" fill="white"/>
</mask>
<g mask="url(#mask0_4305_193)">
<rect x="-10.8115" y="-30.2144" width="123.504" height="149.684" fill="url(#paint3_linear_4305_193)"/>
</g>
<path opacity="0.32" d="M66.1553 92.0306V23.4858C66.1553 19.0845 62.5681 15.5165 58.1431 15.5165L20.0124 15.5165C15.5874 15.5165 12.0002 19.0845 12.0002 23.4858L12.0002 92.0306C12.0002 96.432 15.5874 100 20.0124 100H58.1431C62.5681 100 66.1553 96.432 66.1553 92.0306Z" fill="url(#paint4_radial_4305_193)"/>
<path opacity="0.31" d="M58.8486 79.1888V28.6061C58.8486 25.3906 56.2279 22.7839 52.9951 22.7839L25.16 22.7839C21.9272 22.7839 19.3065 25.3906 19.3065 28.6061V79.1888C19.3065 82.4043 21.9272 85.011 25.16 85.011H52.9951C56.2279 85.011 58.8486 82.4043 58.8486 79.1888Z" fill="white"/>
<path opacity="0.5" d="M58.1429 15.5268H20.0122C15.591 15.5268 12 19.0986 12 23.4962V92.0306C12 96.4282 15.591 100 20.0122 100H58.1429C62.5641 100 66.1551 96.4282 66.1551 92.0306V23.4962C66.1551 19.0986 62.5641 15.5268 58.1429 15.5268ZM64.5983 92.0306C64.5983 95.5714 61.7027 98.4515 58.1429 98.4515H20.0122C16.4524 98.4515 13.5568 95.5714 13.5568 92.0306V23.4962C13.5568 19.9554 16.4524 17.0752 20.0122 17.0752H58.1429C61.7027 17.0752 64.5983 19.9554 64.5983 23.4962V92.0306Z" fill="url(#paint5_linear_4305_193)"/>
<path opacity="0.31" d="M39.0779 95.7365C41.021 95.7365 42.5962 94.1698 42.5962 92.237C42.5962 90.3043 41.021 88.7375 39.0779 88.7375C37.1348 88.7375 35.5596 90.3043 35.5596 92.237C35.5596 94.1698 37.1348 95.7365 39.0779 95.7365Z" fill="white"/>
<path opacity="0.71" d="M52.8498 23.4755L50.5769 37.2051L54.6453 23.8781L68.4591 26.1492L55.0605 22.0922L57.3334 8.36261L53.265 21.6793L39.4512 19.4186L52.8498 23.4755Z" fill="url(#paint6_radial_4305_193)"/>
<defs>
<filter id="filter0_d_4305_193" x="24.849" y="0.481191" width="61.1939" height="88.1478" filterUnits="userSpaceOnUse" color-interpolation-filters="sRGB">
<feFlood flood-opacity="0" result="BackgroundImageFix"/>
<feColorMatrix in="SourceAlpha" type="matrix" values="0 0 0 0 0 0 0 0 0 0 0 0 0 0 0 0 0 0 127 0" result="hardAlpha"/>
<feOffset dx="4.35025"/>
<feGaussianBlur stdDeviation="3.2594"/>
<feColorMatrix type="matrix" values="0 0 0 0 0 0 0 0 0 0 0 0 0 0 0 0 0 0 0.25 0"/>
<feBlend mode="normal" in2="BackgroundImageFix" result="effect1_dropShadow_4305_193"/>
<feBlend mode="normal" in="SourceGraphic" in2="effect1_dropShadow_4305_193" result="shape"/>
</filter>
<radialGradient id="paint0_radial_4305_193" cx="0" cy="0" r="1" gradientUnits="userSpaceOnUse" gradientTransform="translate(72.1355 56.0276) rotate(90) scale(89.9656 44.0732)">
<stop stop-color="#0074D9"/>
<stop offset="1" stop-color="#185081"/>
</radialGradient>
<radialGradient id="paint1_radial_4305_193" cx="0" cy="0" r="1" gradientUnits="userSpaceOnUse" gradientTransform="translate(40.2322 62.8258) rotate(90) scale(74.0709 36.2757)">
<stop stop-color="white"/>
<stop offset="0.33" stop-color="#CAE6FF"/>
<stop offset="0.52" stop-color="#99D0FF"/>
<stop offset="0.67" stop-color="#85C6FF"/>
<stop offset="0.81" stop-color="#4EADFF"/>
<stop offset="0.93" stop-color="#289BFF"/>
<stop offset="1" stop-color="#0074D9"/>
</radialGradient>
<radialGradient id="paint2_radial_4305_193" cx="0" cy="0" r="1" gradientUnits="userSpaceOnUse" gradientTransform="translate(39.1785 56.6765) rotate(-0.566952) scale(36.4493 48.2184)">
<stop stop-color="white" stop-opacity="0"/>
<stop offset="0.37" stop-color="white" stop-opacity="0"/>
<stop offset="0.51" stop-color="white" stop-opacity="0.01"/>
<stop offset="0.6" stop-color="white" stop-opacity="0.01"/>
<stop offset="0.68" stop-color="white" stop-opacity="0.0225"/>
<stop offset="0.75" stop-color="white" stop-opacity="0.0529"/>
<stop offset="0.8" stop-color="white" stop-opacity="0.1156"/>
<stop offset="0.86" stop-color="white" stop-opacity="0.2209"/>
<stop offset="0.91" stop-color="white" stop-opacity="0.3721"/>
<stop offset="0.95" stop-color="white" stop-opacity="0.6084"/>
<stop offset="0.99" stop-color="white" stop-opacity="0.9216"/>
<stop offset="1" stop-color="white"/>
</radialGradient>
<linearGradient id="paint3_linear_4305_193" x1="50.9406" y1="13.3409" x2="50.9406" y2="119.469" gradientUnits="userSpaceOnUse">
<stop stop-color="#0074D9"/>
<stop offset="0.524" stop-color="#77B2E5"/>
<stop offset="1" stop-color="#0074D9"/>
</linearGradient>
<radialGradient id="paint4_radial_4305_193" cx="0" cy="0" r="1" gradientUnits="userSpaceOnUse" gradientTransform="translate(51.3244 20.9257) scale(62.1776 61.8451)">
<stop stop-color="white"/>
<stop offset="0.07" stop-color="white" stop-opacity="0.7921"/>
<stop offset="0.27" stop-color="white" stop-opacity="0.3969"/>
<stop offset="0.46" stop-color="white" stop-opacity="0.16"/>
<stop offset="0.63" stop-color="white" stop-opacity="0.0529"/>
<stop offset="0.78" stop-color="white" stop-opacity="0.01"/>
<stop offset="0.91" stop-color="white" stop-opacity="0.01"/>
<stop offset="1" stop-color="white" stop-opacity="0"/>
</radialGradient>
<linearGradient id="paint5_linear_4305_193" x1="12.8199" y1="24.322" x2="74.3056" y2="103.468" gradientUnits="userSpaceOnUse">
<stop stop-color="white" stop-opacity="0"/>
<stop offset="0.05" stop-color="white" stop-opacity="0.01"/>
<stop offset="0.12" stop-color="white" stop-opacity="0.01"/>
<stop offset="0.18" stop-color="white" stop-opacity="0.0289"/>
<stop offset="0.26" stop-color="white" stop-opacity="0.09"/>
<stop offset="0.33" stop-color="white" stop-opacity="0.2209"/>
<stop offset="0.41" stop-color="white" stop-opacity="0.4489"/>
<stop offset="0.48" stop-color="white" stop-opacity="0.8281"/>
<stop offset="0.51" stop-color="white" stop-opacity="0.9216"/>
<stop offset="0.53" stop-color="white" stop-opacity="0.6084"/>
<stop offset="0.56" stop-color="white" stop-opacity="0.3721"/>
<stop offset="0.58" stop-color="white" stop-opacity="0.2209"/>
<stop offset="0.61" stop-color="white" stop-opacity="0.1156"/>
<stop offset="0.64" stop-color="white" stop-opacity="0.0529"/>
<stop offset="0.67" stop-color="white" stop-opacity="0.0225"/>
<stop offset="0.71" stop-color="white" stop-opacity="0.01"/>
<stop offset="0.75" stop-color="white" stop-opacity="0.01"/>
<stop offset="0.82" stop-color="white" stop-opacity="0"/>
<stop offset="1" stop-color="white" stop-opacity="0"/>
</linearGradient>
<radialGradient id="paint6_radial_4305_193" cx="0" cy="0" r="1" gradientUnits="userSpaceOnUse" gradientTransform="translate(53.6805 22.9466) rotate(102.987) scale(0.51629 0.518786)">
<stop stop-color="white"/>
<stop offset="0.09" stop-color="white" stop-opacity="0.7056"/>
<stop offset="0.23" stop-color="white" stop-opacity="0.3844"/>
<stop offset="0.36" stop-color="white" stop-opacity="0.1849"/>
<stop offset="0.5" stop-color="white" stop-opacity="0.0784"/>
<stop offset="0.63" stop-color="white" stop-opacity="0.0225"/>
<stop offset="0.76" stop-color="white" stop-opacity="0.01"/>
<stop offset="0.89" stop-color="white" stop-opacity="0.01"/>
<stop offset="1" stop-color="white" stop-opacity="0"/>
</radialGradient>
</defs>
</svg>
