<svg width="80" height="71" viewBox="0 0 80 71" fill="none" xmlns="http://www.w3.org/2000/svg">
<path d="M73.2554 11.1809H46.6498V8.62286C46.6498 4.88992 43.6251 1.86523 39.8922 1.86523H15.6697C11.9368 1.86523 8.91211 4.88992 8.91211 8.62286V52.7016C8.91211 56.4346 11.9368 59.4592 15.6697 59.4592H73.2471C76.98 59.4592 80.0047 56.4346 80.0047 52.7016V17.9386C80.0047 14.2056 76.98 11.1809 73.2471 11.1809H73.2554Z" fill="url(#paint0_radial_3195_410)"/>
<path d="M64.3482 22.1881H37.7426V19.6301C37.7426 15.8971 34.7179 12.8724 30.985 12.8724H6.76251C3.02957 12.8724 0.00488281 15.8971 0.00488281 19.6301V63.7088C0.00488281 67.4417 3.02957 70.4664 6.76251 70.4664H64.3398C68.0728 70.4664 71.0975 67.4417 71.0975 63.7088V28.9458C71.0975 25.2128 68.0728 22.1881 64.3398 22.1881H64.3482Z" fill="url(#paint1_radial_3195_410)"/>
<path opacity="0.6" d="M64.3482 22.1881H37.7426V19.6301C37.7426 15.8971 34.7179 12.8724 30.985 12.8724H6.76251C3.02957 12.8724 0.00488281 15.8971 0.00488281 19.6301V63.7088C0.00488281 67.4417 3.02957 70.4664 6.76251 70.4664H64.3398C68.0728 70.4664 71.0975 67.4417 71.0975 63.7088V28.9458C71.0975 25.2128 68.0728 22.1881 64.3398 22.1881H64.3482Z" fill="url(#paint2_radial_3195_410)"/>
<mask id="mask0_3195_410" style="mask-type:luminance" maskUnits="userSpaceOnUse" x="0" y="12" width="72" height="59">
<path d="M64.3482 22.1881H37.7426V19.6301C37.7426 15.8971 34.7179 12.8724 30.985 12.8724H6.76251C3.02957 12.8724 0.00488281 15.8971 0.00488281 19.6301V63.7088C0.00488281 67.4417 3.02957 70.4664 6.76251 70.4664H64.3398C68.0728 70.4664 71.0975 67.4417 71.0975 63.7088V28.9458C71.0975 25.2128 68.0728 22.1881 64.3398 22.1881H64.3482Z" fill="white"/>
</mask>
<g mask="url(#mask0_3195_410)">
<rect x="-21.3838" y="-28.4399" width="131.653" height="118.321" fill="url(#paint3_linear_3195_410)"/>
</g>
<path opacity="0.31" d="M30.9928 12.8807H6.77031C3.03737 12.8807 0.0126953 15.9054 0.0126953 19.6384V30.1123C0.0126953 26.3793 3.03737 23.3547 6.77031 23.3547H37.7504V19.6384C37.7504 15.9054 34.7257 12.8807 30.9928 12.8807Z" fill="white"/>
<path opacity="0.32" d="M64.3482 22.1881H37.7426V19.6301C37.7426 15.8971 34.7179 12.8724 30.985 12.8724H6.76251C3.02957 12.8724 0.00488281 15.8971 0.00488281 19.6301V63.7088C0.00488281 67.4417 3.02957 70.4664 6.76251 70.4664H64.3398C68.0728 70.4664 71.0975 67.4417 71.0975 63.7088V28.9458C71.0975 25.2128 68.0728 22.1881 64.3398 22.1881H64.3482Z" fill="url(#paint4_radial_3195_410)"/>
<path opacity="0.5" d="M30.9928 14.0473C34.0758 14.0473 36.5839 16.5554 36.5839 19.6384V23.363H64.356C67.439 23.363 69.9471 25.8711 69.9471 28.9541V63.7171C69.9471 66.8001 67.439 69.3082 64.356 69.3082H6.77865C3.69564 69.3082 1.18756 66.8001 1.18756 63.7171V19.6384C1.18756 16.5554 3.69564 14.0473 6.77865 14.0473H31.0011M30.9928 12.8807H6.77031C3.03737 12.8807 0.0126953 15.9054 0.0126953 19.6384V63.7171C0.0126953 67.4501 3.03737 70.4747 6.77031 70.4747H64.3476C68.0806 70.4747 71.1053 67.4501 71.1053 63.7171V28.9541C71.1053 25.2211 68.0806 22.1964 64.3476 22.1964H37.7421V19.6384C37.7421 15.9054 34.7174 12.8807 30.9845 12.8807H30.9928Z" fill="url(#paint5_linear_3195_410)"/>
<path opacity="0.31" d="M61.5568 46.4522L53.641 41.6694L46.6084 46.4522V22.1881H61.5568V46.4522Z" fill="white"/>
<defs>
<radialGradient id="paint0_radial_3195_410" cx="0" cy="0" r="1" gradientUnits="userSpaceOnUse" gradientTransform="translate(48.7227 29.4344) scale(62.3304 38.5793)">
<stop stop-color="white"/>
<stop offset="0.33" stop-color="#CAE6FF"/>
<stop offset="0.52" stop-color="#99D0FF"/>
<stop offset="0.67" stop-color="#85C6FF"/>
<stop offset="0.81" stop-color="#4EADFF"/>
<stop offset="0.93" stop-color="#289BFF"/>
<stop offset="1" stop-color="#0074D9"/>
</radialGradient>
<radialGradient id="paint1_radial_3195_410" cx="0" cy="0" r="1" gradientUnits="userSpaceOnUse" gradientTransform="translate(39.8155 40.4416) scale(62.3304 38.5793)">
<stop stop-color="white"/>
<stop offset="0.33" stop-color="#CAE6FF"/>
<stop offset="0.52" stop-color="#99D0FF"/>
<stop offset="0.67" stop-color="#85C6FF"/>
<stop offset="0.81" stop-color="#4EADFF"/>
<stop offset="0.93" stop-color="#289BFF"/>
<stop offset="1" stop-color="#0074D9"/>
</radialGradient>
<radialGradient id="paint2_radial_3195_410" cx="0" cy="0" r="1" gradientUnits="userSpaceOnUse" gradientTransform="translate(35.5595 42.0944) scale(47.87 47.87)">
<stop stop-color="white" stop-opacity="0"/>
<stop offset="0.37" stop-color="white" stop-opacity="0"/>
<stop offset="0.51" stop-color="white" stop-opacity="0.01"/>
<stop offset="0.6" stop-color="white" stop-opacity="0.01"/>
<stop offset="0.68" stop-color="white" stop-opacity="0.0225"/>
<stop offset="0.75" stop-color="white" stop-opacity="0.0529"/>
<stop offset="0.8" stop-color="white" stop-opacity="0.1156"/>
<stop offset="0.86" stop-color="white" stop-opacity="0.2209"/>
<stop offset="0.91" stop-color="white" stop-opacity="0.3721"/>
<stop offset="0.95" stop-color="white" stop-opacity="0.6084"/>
<stop offset="0.99" stop-color="white" stop-opacity="0.9216"/>
<stop offset="1" stop-color="white"/>
</radialGradient>
<linearGradient id="paint3_linear_3195_410" x1="67.5005" y1="23.5" x2="2.50049" y2="69" gradientUnits="userSpaceOnUse">
<stop stop-color="#0074D9"/>
<stop offset="1" stop-color="#0074D9" stop-opacity="0"/>
</linearGradient>
<radialGradient id="paint4_radial_3195_410" cx="0" cy="0" r="1" gradientUnits="userSpaceOnUse" gradientTransform="translate(38.8925 12.0975) scale(44.0621 44.0621)">
<stop stop-color="white"/>
<stop offset="0.07" stop-color="white" stop-opacity="0.7921"/>
<stop offset="0.27" stop-color="white" stop-opacity="0.3969"/>
<stop offset="0.46" stop-color="white" stop-opacity="0.16"/>
<stop offset="0.63" stop-color="white" stop-opacity="0.0529"/>
<stop offset="0.78" stop-color="white" stop-opacity="0.01"/>
<stop offset="0.91" stop-color="white" stop-opacity="0.01"/>
<stop offset="1" stop-color="white" stop-opacity="0"/>
</radialGradient>
<linearGradient id="paint5_linear_3195_410" x1="6.03707" y1="21.4465" x2="58.8982" y2="66.0002" gradientUnits="userSpaceOnUse">
<stop stop-color="white" stop-opacity="0"/>
<stop offset="0.03" stop-color="white" stop-opacity="0.0144"/>
<stop offset="0.09" stop-color="white" stop-opacity="0.1024"/>
<stop offset="0.15" stop-color="white" stop-opacity="0.25"/>
<stop offset="0.22" stop-color="white" stop-opacity="0.4356"/>
<stop offset="0.28" stop-color="white" stop-opacity="0.6084"/>
<stop offset="0.35" stop-color="white" stop-opacity="0.7744"/>
<stop offset="0.42" stop-color="white" stop-opacity="0.9025"/>
<stop offset="0.49" stop-color="white" stop-opacity="0.9801"/>
<stop offset="0.58" stop-color="white"/>
<stop offset="0.59" stop-color="white" stop-opacity="0.9216"/>
<stop offset="0.6" stop-color="white" stop-opacity="0.6084"/>
<stop offset="0.62" stop-color="white" stop-opacity="0.3721"/>
<stop offset="0.64" stop-color="white" stop-opacity="0.2209"/>
<stop offset="0.66" stop-color="white" stop-opacity="0.1156"/>
<stop offset="0.69" stop-color="white" stop-opacity="0.0529"/>
<stop offset="0.72" stop-color="white" stop-opacity="0.0225"/>
<stop offset="0.75" stop-color="white" stop-opacity="0.01"/>
<stop offset="0.79" stop-color="white" stop-opacity="0.01"/>
<stop offset="0.84" stop-color="white" stop-opacity="0"/>
<stop offset="1" stop-color="white" stop-opacity="0"/>
</linearGradient>
</defs>
</svg>
